<?xml version="1.0" encoding="utf-8"?>
<!-- Generator: Adobe Illustrator 25.1.0, SVG Export Plug-In . SVG Version: 6.00 Build 0)  -->
<svg version="1.1" id="Layer_1" xmlns="http://www.w3.org/2000/svg" xmlns:xlink="http://www.w3.org/1999/xlink" x="0px" y="0px"
	 viewBox="0 0 389 197" style="enable-background:new 0 0 389 197;" xml:space="preserve">
<style type="text/css">
	.st0{fill:#FFFFFF;}
	.st1{fill:none;stroke:#FFFFFF;stroke-miterlimit:10;}
</style>
<g>
	<g>
		<g>
			<g>
				<path class="st0" d="M18.04,80.14c0,0,86.92-50.43,171.46,26.39c0,0-76.29-62.86-174.01-12.97L18.04,80.14z"/>
				<path class="st0" d="M13.32,104.98c0,0,90.21-63.88,203.27,22.81c0,0-105.17-74.63-206.65-5L13.32,104.98z"/>
				<path class="st0" d="M7.98,133.08c0,0,99.69-77.35,225.98,12.52c0,0-110.61-73.36-229.72,7.17L7.98,133.08z"/>
			</g>
			<path class="st0" d="M209.36,114.7c0,0,34.88,23.41,57.71,2.97l16.17,3.07C283.24,120.75,265.01,151.51,209.36,114.7z"/>
			<path class="st0" d="M229.33,131.61c0,0,42.81,16.88,67.97-8.19l17.58,3.34C314.87,126.76,291.99,155.18,229.33,131.61z"/>
			<path class="st0" d="M241.15,144.78c0,0,66.3,13.36,85.67-15.75l18.25,3.47C345.07,132.51,318.28,164.4,241.15,144.78z"/>
		</g>
	</g>
	<g>
		<polygon class="st1" points="382.77,63.17 339.59,84.12 342.31,132.03 312.91,97.07 269.74,118.02 294.74,75.46 265.34,40.5 
			310.19,49.16 335.19,6.6 337.91,54.51 		"/>
		<path class="st0" d="M368.22,65.14l-34.99-6.75l-2.12-37.37l-19.5,33.2l-34.99-6.75l22.93,27.27l-19.5,33.2l33.67-16.34
			l22.93,27.27l-2.12-37.37L368.22,65.14z M315.29,85.55L291.7,97l13.66-23.26l-16.07-19.11l24.52,4.73l13.66-23.26l1.49,26.19
			l24.52,4.73l-23.6,11.45l1.49,26.19L315.29,85.55z"/>
	</g>
</g>
<g>
	<g>
		<path class="st0" d="M7.8,183.84l3.03-0.65c0.36,1.72,1.76,2.58,4.19,2.58c1.11,0,1.96-0.22,2.56-0.66s0.9-0.99,0.9-1.64
			c0-0.47-0.14-0.91-0.41-1.31c-0.27-0.4-0.85-0.72-1.74-0.95l-3.31-0.86c-1.13-0.3-1.97-0.63-2.51-1.01
			c-0.54-0.38-0.98-0.91-1.3-1.59s-0.49-1.42-0.49-2.2c0-1.55,0.58-2.79,1.73-3.73c1.15-0.93,2.62-1.4,4.42-1.4
			c1.49,0,2.82,0.33,3.99,0.98s1.92,1.57,2.24,2.77l-2.97,0.74c-0.46-1.31-1.52-1.97-3.2-1.97c-0.97,0-1.72,0.2-2.23,0.61
			s-0.77,0.92-0.77,1.55c0,0.99,0.8,1.68,2.41,2.08l2.95,0.74c1.79,0.45,2.98,1.11,3.59,1.99c0.61,0.88,0.91,1.84,0.91,2.9
			c0,1.7-0.64,3.04-1.92,4.02c-1.28,0.98-2.94,1.47-4.98,1.47c-1.72,0-3.22-0.36-4.51-1.08S8.23,185.37,7.8,183.84z"/>
		<path class="st0" d="M30.53,188.02h-3.35v-14.65h-4.61v-2.68h12.57v2.68h-4.61V188.02z"/>
		<path class="st0" d="M50.55,188.02h-3.3l-2.69-7.12h-4.39v7.12h-3.12v-17.33h7.52c2.09,0,3.63,0.47,4.61,1.42
			c0.98,0.94,1.47,2.17,1.47,3.66c0,2.23-1.04,3.76-3.12,4.6L50.55,188.02z M40.17,178.4h3.88c1.13,0,1.96-0.24,2.51-0.71
			s0.83-1.13,0.83-1.96c0-0.76-0.27-1.38-0.81-1.85c-0.54-0.47-1.3-0.7-2.27-0.7h-4.14V178.4z"/>
		<path class="st0" d="M65.01,188.02H53.75v-17.33H64.9v2.58h-8.02v4.7h6.45v2.51h-6.45v4.85h8.14V188.02z"/>
		<path class="st0" d="M80.79,188.02h-3.03l-6.58-11.07c-0.1-0.17-0.27-0.44-0.5-0.83c-0.1-0.17-0.26-0.44-0.47-0.8v12.7H67.7
			v-17.33h3.45l6.07,10.21c0.05,0.08,0.42,0.71,1.1,1.87v-12.07h2.46V188.02z"/>
		<path class="st0" d="M97.75,179.16v8.86h-1.38l-0.95-2.34c-1.01,1.74-2.57,2.6-4.68,2.6c-2.36,0-4.12-0.9-5.29-2.69
			c-1.16-1.79-1.75-3.87-1.75-6.23c0-2.5,0.65-4.61,1.95-6.34c1.3-1.73,3.12-2.6,5.45-2.6c1.74,0,3.18,0.51,4.3,1.52
			c1.13,1.01,1.84,2.27,2.13,3.78l-2.72,0.48c-0.51-2.12-1.72-3.17-3.64-3.17c-1.23,0-2.23,0.5-3,1.5c-0.78,1-1.16,2.54-1.16,4.61
			c0,4.38,1.37,6.56,4.11,6.56c1.07,0,1.95-0.37,2.65-1.1c0.7-0.74,1.05-1.71,1.05-2.92h-3.58v-2.51H97.75z"/>
		<path class="st0" d="M106.98,188.02h-3.35v-14.65h-4.61v-2.68h12.57v2.68h-4.61V188.02z"/>
		<path class="st0" d="M126.35,188.02h-3.12v-7.53h-6.61v7.53h-3.12v-17.33h3.12v7.12h6.61v-7.12h3.12V188.02z"/>
		<path class="st0" d="M142.72,188.02h-3.35v-14.65h-4.61v-2.68h12.57v2.68h-4.61V188.02z"/>
		<path class="st0" d="M162.09,188.02h-3.12v-7.53h-6.61v7.53h-3.12v-17.33h3.12v7.12h6.61v-7.12h3.12V188.02z"/>
		<path class="st0" d="M179.41,188.02h-3.3l-2.69-7.12h-4.39v7.12h-3.12v-17.33h7.52c2.09,0,3.63,0.47,4.61,1.42
			c0.98,0.94,1.47,2.17,1.47,3.66c0,2.23-1.04,3.76-3.12,4.6L179.41,188.02z M169.02,178.4h3.88c1.13,0,1.96-0.24,2.51-0.71
			s0.83-1.13,0.83-1.96c0-0.76-0.27-1.38-0.81-1.85c-0.54-0.47-1.3-0.7-2.27-0.7h-4.14V178.4z"/>
		<path class="st0" d="M188.76,188.29c-2.3,0-4.09-0.86-5.38-2.59c-1.28-1.73-1.92-3.86-1.92-6.4c0-2.52,0.68-4.63,2.04-6.33
			c1.36-1.7,3.16-2.54,5.4-2.54c2.25,0,4.03,0.85,5.34,2.54c1.31,1.7,1.96,3.82,1.96,6.37c0,2.67-0.68,4.83-2.04,6.48
			C192.81,187.46,191.01,188.29,188.76,188.29z M188.79,185.77c1.13,0,2.08-0.47,2.86-1.4s1.17-2.62,1.17-5.07
			c0-1.99-0.32-3.55-0.96-4.68c-0.64-1.13-1.64-1.7-3-1.7c-2.67,0-4.01,2.15-4.01,6.46c0,2.09,0.34,3.67,1.02,4.75
			C186.54,185.23,187.52,185.77,188.79,185.77z"/>
		<path class="st0" d="M211.01,170.69v11.13c0,1.51-0.17,2.67-0.51,3.48s-0.99,1.51-1.96,2.1c-0.97,0.59-2.15,0.88-3.55,0.88
			c-1.41,0-2.58-0.25-3.49-0.76c-0.91-0.51-1.56-1.2-1.96-2.09c-0.4-0.88-0.6-2.01-0.6-3.38v-11.36h3.19v11.13
			c0,1.52,0.32,2.52,0.96,3c0.64,0.48,1.38,0.72,2.23,0.72c0.97,0,1.75-0.26,2.34-0.77c0.58-0.51,0.88-1.5,0.88-2.95v-11.13H211.01z
			"/>
		<path class="st0" d="M227.73,179.16v8.86h-1.38l-0.95-2.34c-1.01,1.74-2.57,2.6-4.68,2.6c-2.36,0-4.12-0.9-5.29-2.69
			c-1.16-1.79-1.75-3.87-1.75-6.23c0-2.5,0.65-4.61,1.95-6.34c1.3-1.73,3.12-2.6,5.45-2.6c1.74,0,3.18,0.51,4.3,1.52
			c1.13,1.01,1.84,2.27,2.13,3.78l-2.72,0.48c-0.51-2.12-1.72-3.17-3.64-3.17c-1.23,0-2.23,0.5-3,1.5c-0.78,1-1.16,2.54-1.16,4.61
			c0,4.38,1.37,6.56,4.11,6.56c1.07,0,1.95-0.37,2.65-1.1c0.7-0.74,1.05-1.71,1.05-2.92h-3.58v-2.51H227.73z"/>
		<path class="st0" d="M244.13,188.02H241v-7.53h-6.61v7.53h-3.12v-17.33h3.12v7.12H241v-7.12h3.12V188.02z"/>
		<path class="st0" d="M265.7,188.02h-11.26v-17.33h11.15v2.58h-8.02v4.7h6.45v2.51h-6.45v4.85h8.14V188.02z"/>
		<path class="st0" d="M268.3,188.02v-17.33h6.39c2.36,0,4.26,0.84,5.69,2.51c1.43,1.67,2.15,3.74,2.15,6.19s-0.74,4.51-2.21,6.16
			s-3.58,2.48-6.32,2.48H268.3z M271.51,185.47h2.6c1.4,0,2.58-0.52,3.55-1.57s1.46-2.61,1.46-4.68c0-1.69-0.43-3.12-1.28-4.3
			c-0.85-1.17-1.97-1.76-3.37-1.76h-2.97V185.47z"/>
		<path class="st0" d="M297.31,170.69v11.13c0,1.51-0.17,2.67-0.51,3.48s-0.99,1.51-1.96,2.1c-0.97,0.59-2.15,0.88-3.55,0.88
			c-1.41,0-2.58-0.25-3.49-0.76c-0.91-0.51-1.56-1.2-1.96-2.09c-0.4-0.88-0.6-2.01-0.6-3.38v-11.36h3.19v11.13
			c0,1.52,0.32,2.52,0.96,3c0.64,0.48,1.38,0.72,2.23,0.72c0.97,0,1.75-0.26,2.34-0.77c0.58-0.51,0.88-1.5,0.88-2.95v-11.13H297.31z
			"/>
		<path class="st0" d="M310.56,182l2.89,0.32c-0.19,1.74-0.86,3.16-2.01,4.28c-1.15,1.12-2.67,1.68-4.55,1.68
			c-1.58,0-2.87-0.4-3.85-1.19c-0.99-0.8-1.75-1.88-2.28-3.24s-0.8-2.87-0.8-4.51c0-2.64,0.63-4.79,1.88-6.44
			c1.25-1.66,2.97-2.48,5.17-2.48c1.72,0,3.15,0.53,4.29,1.59s1.86,2.57,2.16,4.54l-2.89,0.3c-0.53-2.62-1.71-3.92-3.53-3.92
			c-1.17,0-2.08,0.54-2.72,1.63c-0.65,1.09-0.97,2.66-0.97,4.73c0,2.1,0.35,3.68,1.04,4.75c0.69,1.07,1.61,1.61,2.75,1.61
			c0.91,0,1.69-0.36,2.34-1.08S310.48,183,310.56,182z"/>
		<path class="st0" d="M329.4,188.02h-3.34l-1.38-4.13h-6.67l-1.36,4.13h-2.67l5.75-17.33h3.85L329.4,188.02z M323.84,181.39
			l-2.53-7.73l-2.53,7.73H323.84z"/>
		<path class="st0" d="M336.13,188.02h-3.35v-14.65h-4.61v-2.68h12.57v2.68h-4.61V188.02z"/>
		<path class="st0" d="M345.77,188.02h-3.12v-17.33h3.12V188.02z"/>
		<path class="st0" d="M355.96,188.29c-2.3,0-4.09-0.86-5.38-2.59c-1.28-1.73-1.92-3.86-1.92-6.4c0-2.52,0.68-4.63,2.04-6.33
			c1.36-1.7,3.16-2.54,5.4-2.54c2.25,0,4.03,0.85,5.34,2.54c1.31,1.7,1.96,3.82,1.96,6.37c0,2.67-0.68,4.83-2.04,6.48
			C360,187.46,358.2,188.29,355.96,188.29z M355.99,185.77c1.13,0,2.08-0.47,2.86-1.4s1.17-2.62,1.17-5.07
			c0-1.99-0.32-3.55-0.96-4.68c-0.64-1.13-1.64-1.7-3-1.7c-2.67,0-4.01,2.15-4.01,6.46c0,2.09,0.34,3.67,1.02,4.75
			C353.74,185.23,354.72,185.77,355.99,185.77z"/>
		<path class="st0" d="M379.4,188.02h-3.03l-6.58-11.07c-0.1-0.17-0.27-0.44-0.5-0.83c-0.1-0.17-0.26-0.44-0.47-0.8v12.7h-2.51
			v-17.33h3.45l6.07,10.21c0.05,0.08,0.42,0.71,1.1,1.87v-12.07h2.46V188.02z"/>
	</g>
</g>
<line class="st1" x1="4" y1="162" x2="383" y2="162"/>
</svg>
